<svg xmlns="http://www.w3.org/2000/svg" xmlns:xlink="http://www.w3.org/1999/xlink" width="500" zoomAndPan="magnify" viewBox="0 0 375 374.999991" height="500" preserveAspectRatio="xMidYMid meet" version="1.0"><defs><g/><clipPath id="cfc00a2dbe"><path d="M 122.867188 83.59375 L 312.617188 83.59375 L 312.617188 274 L 122.867188 274 Z M 122.867188 83.59375 " clip-rule="nonzero"/></clipPath><clipPath id="7b9ba4633e"><path d="M 63.566406 24.191406 L 253.316406 24.191406 L 253.316406 214.691406 L 63.566406 214.691406 Z M 63.566406 24.191406 " clip-rule="nonzero"/></clipPath><clipPath id="135898b623"><path d="M 0.730469 0.191406 L 190.316406 0.191406 L 190.316406 190.421875 L 0.730469 190.421875 Z M 0.730469 0.191406 " clip-rule="nonzero"/></clipPath><clipPath id="9703e62f73"><rect x="0" width="191" y="0" height="191"/></clipPath><clipPath id="e1644968e6"><path d="M 190.304688 150.753906 L 250.019531 150.753906 L 250.019531 210.394531 L 190.304688 210.394531 Z M 190.304688 150.753906 " clip-rule="nonzero"/></clipPath><clipPath id="c75b16b052"><path d="M 0.304688 0.753906 L 60 0.753906 L 60 60.394531 L 0.304688 60.394531 Z M 0.304688 0.753906 " clip-rule="nonzero"/></clipPath><clipPath id="3317ddae37"><rect x="0" width="61" y="0" height="61"/></clipPath><clipPath id="b3aedf6a24"><path d="M 189.789062 86.128906 L 249.789062 86.128906 L 249.789062 146.878906 L 189.789062 146.878906 Z M 189.789062 86.128906 " clip-rule="nonzero"/></clipPath><clipPath id="a4e8a365a7"><rect x="0" width="136" y="0" height="65"/></clipPath><clipPath id="155e403eba"><rect x="0" width="131" y="0" height="67"/></clipPath></defs><g clip-path="url(#cfc00a2dbe)"><path fill="#002d69" d="M 312.742188 83.644531 C 312.742188 83.644531 312.742188 83.640625 312.742188 83.640625 C 312.738281 83.640625 312.738281 83.636719 312.738281 83.636719 C 312.71875 83.617188 312.691406 83.605469 312.65625 83.605469 C 311.632812 83.605469 310.609375 83.605469 309.585938 83.605469 C 306.917969 83.605469 304.246094 83.605469 301.578125 83.605469 C 297.859375 83.605469 294.140625 83.605469 290.421875 83.605469 C 286.253906 83.605469 282.085938 83.605469 277.917969 83.605469 C 273.894531 83.605469 269.875 83.605469 265.855469 83.605469 C 262.582031 83.605469 259.304688 83.605469 256.03125 83.605469 C 254.101562 83.605469 252.171875 83.605469 250.242188 83.605469 C 249.96875 83.605469 249.695312 83.605469 249.425781 83.605469 C 249.386719 83.605469 249.363281 83.617188 249.34375 83.636719 C 249.34375 83.636719 249.339844 83.640625 249.339844 83.640625 C 249.339844 83.640625 249.335938 83.644531 249.335938 83.644531 C 249.316406 83.664062 249.304688 83.6875 249.304688 83.726562 C 249.304688 86.796875 249.304688 89.871094 249.304688 92.945312 C 249.304688 100.96875 249.304688 108.988281 249.304688 117.011719 C 249.304688 126.988281 249.304688 136.964844 249.304688 146.945312 C 247.246094 146.945312 245.183594 146.945312 243.125 146.945312 C 235.082031 146.945312 227.042969 146.945312 219 146.945312 C 212.457031 146.945312 205.914062 146.945312 199.371094 146.945312 C 195.523438 146.945312 191.679688 146.945312 187.832031 146.945312 C 187.292969 146.945312 186.757812 146.945312 186.21875 146.945312 C 186.1875 146.945312 186.160156 146.957031 186.140625 146.976562 C 186.136719 146.976562 186.136719 146.980469 186.136719 146.980469 C 186.136719 146.980469 186.132812 146.980469 186.132812 146.984375 C 186.113281 147.003906 186.101562 147.027344 186.101562 147.0625 C 186.101562 149.113281 186.101562 151.167969 186.101562 153.21875 C 186.101562 158.574219 186.101562 163.925781 186.101562 169.28125 C 186.101562 176.734375 186.101562 184.191406 186.101562 191.644531 C 186.101562 197.847656 186.101562 204.050781 186.101562 210.257812 C 181.453125 210.257812 176.808594 210.257812 172.160156 210.257812 C 162.347656 210.257812 152.53125 210.257812 142.714844 210.257812 C 136.945312 210.257812 131.175781 210.257812 125.40625 210.257812 C 124.597656 210.257812 123.792969 210.257812 122.988281 210.257812 C 122.953125 210.257812 122.925781 210.269531 122.90625 210.289062 C 122.90625 210.289062 122.90625 210.289062 122.902344 210.289062 C 122.902344 210.292969 122.902344 210.292969 122.902344 210.292969 C 122.882812 210.3125 122.867188 210.339844 122.867188 210.375 C 122.867188 211.402344 122.867188 212.425781 122.867188 213.449219 C 122.867188 216.125 122.867188 218.800781 122.867188 221.472656 C 122.867188 225.199219 122.867188 228.921875 122.867188 232.648438 C 122.867188 236.824219 122.867188 241 122.867188 245.175781 C 122.867188 249.203125 122.867188 253.230469 122.867188 257.257812 C 122.867188 260.535156 122.867188 263.816406 122.867188 267.09375 C 122.867188 269.027344 122.867188 270.960938 122.867188 272.894531 C 122.867188 273.167969 122.867188 273.441406 122.867188 273.714844 C 122.867188 273.75 122.882812 273.777344 122.902344 273.796875 C 122.902344 273.796875 122.902344 273.796875 122.902344 273.800781 C 122.902344 273.800781 122.90625 273.800781 122.90625 273.804688 C 122.925781 273.820312 122.953125 273.835938 122.988281 273.835938 C 124.519531 273.835938 126.054688 273.835938 127.589844 273.835938 C 131.59375 273.835938 135.597656 273.835938 139.601562 273.835938 C 145.179688 273.835938 150.753906 273.835938 156.332031 273.835938 C 162.585938 273.835938 168.835938 273.835938 175.085938 273.835938 C 181.117188 273.835938 187.148438 273.835938 193.175781 273.835938 C 198.085938 273.835938 203 273.835938 207.910156 273.835938 C 210.800781 273.835938 213.695312 273.835938 216.589844 273.835938 C 217 273.835938 217.410156 273.835938 217.820312 273.835938 C 219.355469 273.835938 220.886719 273.835938 222.421875 273.835938 C 226.425781 273.835938 230.429688 273.835938 234.433594 273.835938 C 240.011719 273.835938 245.589844 273.835938 251.164062 273.835938 C 257.417969 273.835938 263.667969 273.835938 269.921875 273.835938 C 275.949219 273.835938 281.980469 273.835938 288.011719 273.835938 C 292.921875 273.835938 297.832031 273.835938 302.742188 273.835938 C 305.636719 273.835938 308.527344 273.835938 311.421875 273.835938 C 311.832031 273.835938 312.242188 273.835938 312.652344 273.835938 C 312.6875 273.835938 312.714844 273.820312 312.734375 273.804688 C 312.734375 273.800781 312.734375 273.800781 312.738281 273.800781 C 312.738281 273.796875 312.738281 273.796875 312.742188 273.796875 C 312.757812 273.777344 312.773438 273.75 312.773438 273.714844 C 312.773438 272.175781 312.773438 270.636719 312.773438 269.097656 C 312.773438 265.082031 312.773438 261.066406 312.773438 257.050781 C 312.773438 251.457031 312.773438 245.863281 312.773438 240.269531 C 312.773438 234.003906 312.773438 227.734375 312.773438 221.464844 C 312.773438 215.421875 312.773438 209.378906 312.773438 203.335938 C 312.773438 198.421875 312.773438 193.503906 312.773438 188.585938 C 312.773438 185.695312 312.773438 182.804688 312.773438 179.914062 C 312.773438 179.511719 312.773438 179.109375 312.773438 178.707031 C 312.773438 177.167969 312.773438 175.632812 312.773438 174.097656 C 312.773438 170.085938 312.773438 166.074219 312.773438 162.066406 C 312.773438 156.480469 312.773438 150.894531 312.773438 145.308594 C 312.773438 139.046875 312.773438 132.785156 312.773438 126.523438 C 312.773438 120.484375 312.773438 114.445312 312.773438 108.40625 C 312.773438 103.488281 312.773438 98.570312 312.773438 93.652344 C 312.773438 90.753906 312.773438 87.855469 312.773438 84.957031 C 312.773438 84.546875 312.773438 84.136719 312.773438 83.726562 C 312.773438 83.691406 312.761719 83.664062 312.742188 83.644531 Z M 312.742188 83.644531 " fill-opacity="1" fill-rule="nonzero"/></g><g clip-path="url(#7b9ba4633e)"><g transform="matrix(1, 0, 0, 1, 63, 24)"><g clip-path="url(#9703e62f73)"><g clip-path="url(#135898b623)"><path fill="#002d69" d="M 0.605469 190.371094 C 0.609375 190.375 0.609375 190.375 0.609375 190.375 C 0.609375 190.375 0.613281 190.378906 0.613281 190.378906 C 0.632812 190.398438 0.660156 190.410156 0.695312 190.410156 C 1.71875 190.410156 2.742188 190.410156 3.761719 190.410156 C 6.433594 190.410156 9.101562 190.410156 11.773438 190.410156 C 15.492188 190.410156 19.210938 190.410156 22.929688 190.410156 C 27.097656 190.410156 31.265625 190.410156 35.433594 190.410156 C 39.453125 190.410156 43.476562 190.410156 47.496094 190.410156 C 50.769531 190.410156 54.042969 190.410156 57.316406 190.410156 C 59.246094 190.410156 61.175781 190.410156 63.105469 190.410156 C 63.378906 190.410156 63.652344 190.410156 63.925781 190.410156 C 63.960938 190.410156 63.988281 190.398438 64.007812 190.378906 C 64.007812 190.378906 64.011719 190.375 64.011719 190.375 C 64.011719 190.375 64.011719 190.375 64.015625 190.375 C 64.03125 190.355469 64.046875 190.328125 64.046875 190.292969 C 64.046875 187.21875 64.046875 184.144531 64.046875 181.070312 C 64.046875 173.050781 64.046875 165.027344 64.046875 157.003906 C 64.046875 147.027344 64.046875 137.050781 64.046875 127.070312 C 66.105469 127.070312 68.164062 127.070312 70.222656 127.070312 C 78.265625 127.070312 86.308594 127.070312 94.351562 127.070312 C 100.894531 127.070312 107.4375 127.070312 113.980469 127.070312 C 117.828125 127.070312 121.671875 127.070312 125.519531 127.070312 C 126.054688 127.070312 126.59375 127.070312 127.128906 127.070312 C 127.164062 127.070312 127.191406 127.058594 127.210938 127.039062 C 127.210938 127.039062 127.210938 127.039062 127.214844 127.039062 C 127.214844 127.035156 127.214844 127.035156 127.21875 127.035156 C 127.234375 127.015625 127.25 126.988281 127.25 126.953125 C 127.25 124.902344 127.25 122.847656 127.25 120.796875 C 127.25 115.445312 127.25 110.089844 127.25 104.738281 C 127.25 97.28125 127.25 89.828125 127.25 82.371094 C 127.25 76.167969 127.25 69.964844 127.25 63.761719 C 131.894531 63.761719 136.542969 63.761719 141.1875 63.761719 C 151.003906 63.761719 160.820312 63.761719 170.636719 63.761719 C 176.40625 63.761719 182.175781 63.761719 187.945312 63.761719 C 188.75 63.761719 189.554688 63.761719 190.363281 63.761719 C 190.398438 63.761719 190.421875 63.746094 190.441406 63.730469 C 190.441406 63.726562 190.445312 63.726562 190.445312 63.726562 C 190.445312 63.722656 190.449219 63.722656 190.449219 63.722656 C 190.46875 63.703125 190.480469 63.675781 190.480469 63.640625 C 190.480469 62.617188 190.480469 61.589844 190.480469 60.566406 C 190.480469 57.890625 190.480469 55.21875 190.480469 52.542969 C 190.480469 48.820312 190.480469 45.09375 190.480469 41.371094 C 190.480469 37.195312 190.480469 33.019531 190.480469 28.84375 C 190.480469 24.816406 190.480469 20.789062 190.480469 16.761719 C 190.480469 13.480469 190.480469 10.199219 190.480469 6.921875 C 190.480469 4.988281 190.480469 3.054688 190.480469 1.125 C 190.480469 0.847656 190.480469 0.574219 190.480469 0.300781 C 190.480469 0.265625 190.46875 0.238281 190.449219 0.21875 C 190.449219 0.21875 190.449219 0.21875 190.445312 0.214844 C 190.425781 0.195312 190.398438 0.183594 190.363281 0.183594 C 188.828125 0.183594 187.292969 0.183594 185.761719 0.183594 C 181.757812 0.183594 177.753906 0.183594 173.75 0.183594 C 168.171875 0.183594 162.59375 0.183594 157.019531 0.183594 C 150.765625 0.183594 144.515625 0.183594 138.261719 0.183594 C 132.234375 0.183594 126.203125 0.183594 120.171875 0.183594 C 115.261719 0.183594 110.351562 0.183594 105.441406 0.183594 C 102.546875 0.183594 99.652344 0.183594 96.761719 0.183594 C 96.351562 0.183594 95.941406 0.183594 95.53125 0.183594 C 93.996094 0.183594 92.460938 0.183594 90.929688 0.183594 C 86.925781 0.183594 82.917969 0.183594 78.914062 0.183594 C 73.339844 0.183594 67.761719 0.183594 62.1875 0.183594 C 55.933594 0.183594 49.679688 0.183594 43.429688 0.183594 C 37.398438 0.183594 31.371094 0.183594 25.339844 0.183594 C 20.429688 0.183594 15.519531 0.183594 10.609375 0.183594 C 7.714844 0.183594 4.820312 0.183594 1.925781 0.183594 C 1.515625 0.183594 1.105469 0.183594 0.695312 0.183594 C 0.664062 0.183594 0.636719 0.195312 0.617188 0.214844 C 0.613281 0.214844 0.613281 0.214844 0.613281 0.214844 C 0.613281 0.21875 0.609375 0.21875 0.609375 0.21875 C 0.589844 0.238281 0.578125 0.265625 0.578125 0.300781 C 0.578125 1.839844 0.578125 3.378906 0.578125 4.917969 C 0.578125 8.933594 0.578125 12.949219 0.578125 16.96875 C 0.578125 22.558594 0.578125 28.152344 0.578125 33.746094 C 0.578125 40.011719 0.578125 46.28125 0.578125 52.550781 C 0.578125 58.59375 0.578125 64.636719 0.578125 70.679688 C 0.578125 75.597656 0.578125 80.515625 0.578125 85.429688 C 0.578125 88.320312 0.578125 91.210938 0.578125 94.101562 C 0.578125 94.503906 0.578125 94.90625 0.578125 95.3125 C 0.578125 96.847656 0.578125 98.386719 0.578125 99.921875 C 0.578125 103.933594 0.578125 107.941406 0.578125 111.953125 C 0.578125 117.535156 0.578125 123.125 0.578125 128.707031 C 0.578125 134.96875 0.578125 141.230469 0.578125 147.492188 C 0.578125 153.53125 0.578125 159.570312 0.578125 165.609375 C 0.578125 170.527344 0.578125 175.445312 0.578125 180.363281 C 0.578125 183.261719 0.578125 186.160156 0.578125 189.058594 C 0.578125 189.46875 0.578125 189.882812 0.578125 190.292969 C 0.574219 190.328125 0.589844 190.351562 0.605469 190.371094 Z M 0.605469 190.371094 " fill-opacity="1" fill-rule="nonzero"/></g></g></g></g><g clip-path="url(#e1644968e6)"><g transform="matrix(1, 0, 0, 1, 190, 150)"><g clip-path="url(#3317ddae37)"><g clip-path="url(#c75b16b052)"><path fill="#e58718" d="M 0.304688 0.753906 L 59.945312 0.753906 L 59.945312 60.394531 L 0.304688 60.394531 Z M 0.304688 0.753906 " fill-opacity="1" fill-rule="nonzero"/></g></g></g></g><g clip-path="url(#b3aedf6a24)"><path fill="#148f77" d="M 189.769531 86.09375 L 249.804688 86.09375 L 249.804688 147.207031 L 189.769531 147.207031 Z M 189.769531 86.09375 " fill-opacity="1" fill-rule="nonzero"/></g><g transform="matrix(1, 0, 0, 1, 52, 288)"><g clip-path="url(#a4e8a365a7)"><g fill="#002d69" fill-opacity="1"><g transform="translate(1.796997, 50.305249)"><g><path d="M 4.40625 -26.015625 C 3.488281 -28.171875 3.03125 -29.722656 3.03125 -30.671875 L 0.390625 -30.515625 L 0.390625 -34.28125 L 14.84375 -34.28125 L 14.84375 -31.0625 C 12.6875 -31.125 11.609375 -30.4375 11.609375 -29 C 11.609375 -28.476562 11.738281 -27.90625 12 -27.28125 L 16.5 -16.21875 C 16.894531 -15.300781 17.390625 -14.09375 17.984375 -12.59375 C 18.171875 -12.070312 18.609375 -10.941406 19.296875 -9.203125 L 19.34375 -9.203125 L 21.703125 -15.96875 L 25.421875 -26.203125 C 26.140625 -28.460938 26.8125 -29.953125 27.4375 -30.671875 L 27.4375 -30.71875 L 24.890625 -30.5625 L 23.65625 -30.515625 L 23.65625 -34.28125 L 34.6875 -34.28125 L 34.6875 -31.0625 C 33.539062 -30.988281 32.554688 -30.550781 31.734375 -29.75 C 30.921875 -28.957031 30.171875 -27.644531 29.484375 -25.8125 L 19.6875 0.296875 L 15.671875 0.296875 Z M 4.40625 -26.015625 "/></g></g></g><g fill="#002d69" fill-opacity="1"><g transform="translate(36.474238, 50.305249)"><g><path d="M 12.828125 -19.546875 C 12.015625 -20.585938 11.117188 -21.8125 10.140625 -23.21875 L 10.09375 -23.21875 L 10.1875 -8.03125 C 10.1875 -6.207031 10.125 -4.738281 10 -3.625 C 11.039062 -3.71875 12.265625 -3.765625 13.671875 -3.765625 L 13.671875 0 L 2.5 0 L 2.5 -3.234375 C 3.382812 -3.265625 4.050781 -3.367188 4.5 -3.546875 C 4.957031 -3.734375 5.316406 -4.117188 5.578125 -4.703125 C 5.835938 -5.285156 5.96875 -6.21875 5.96875 -7.5 L 5.875 -26.25 C 5.875 -28.4375 5.941406 -29.910156 6.078125 -30.671875 L 2.34375 -30.515625 L 2.34375 -34.28125 L 10.046875 -34.28125 L 25.03125 -15.375 C 26.40625 -13.582031 27.546875 -12.035156 28.453125 -10.734375 L 28.515625 -10.734375 L 28.515625 -26.25 C 28.515625 -28.375 28.5625 -29.847656 28.65625 -30.671875 L 24.984375 -30.515625 L 24.984375 -34.28125 L 36.15625 -34.28125 L 36.15625 -31.0625 C 35.269531 -31.019531 34.597656 -30.910156 34.140625 -30.734375 C 33.679688 -30.554688 33.320312 -30.171875 33.0625 -29.578125 C 32.800781 -28.992188 32.671875 -28.066406 32.671875 -26.796875 L 32.671875 0.484375 L 28.515625 0.484375 Z M 12.828125 -19.546875 "/></g></g></g><g fill="#002d69" fill-opacity="1"><g transform="translate(74.335116, 50.305249)"><g><path d="M 2.453125 -3.234375 C 3.328125 -3.265625 3.992188 -3.367188 4.453125 -3.546875 C 4.910156 -3.734375 5.269531 -4.117188 5.53125 -4.703125 C 5.789062 -5.285156 5.921875 -6.21875 5.921875 -7.5 L 5.921875 -26.25 C 5.921875 -28.082031 5.988281 -29.554688 6.125 -30.671875 L 2.453125 -30.515625 L 2.453125 -34.28125 L 26.9375 -34.28125 L 27.234375 -24.78125 L 24 -24.78125 C 24 -27.195312 23.421875 -28.867188 22.265625 -29.796875 C 21.109375 -30.734375 19.710938 -31.171875 18.078125 -31.109375 L 16.3125 -31.0625 C 15.53125 -31.019531 14.910156 -30.910156 14.453125 -30.734375 C 13.992188 -30.554688 13.640625 -30.15625 13.390625 -29.53125 C 13.148438 -28.914062 13.03125 -28.003906 13.03125 -26.796875 L 13.03125 -19.453125 L 18.765625 -19.453125 C 18.734375 -20.003906 18.664062 -21.421875 18.5625 -23.703125 L 22.34375 -23.703125 L 22.34375 -11.8125 L 19.109375 -11.8125 C 19.109375 -13.113281 18.898438 -14.070312 18.484375 -14.6875 C 18.078125 -15.3125 17.546875 -15.710938 16.890625 -15.890625 C 16.242188 -16.078125 15.378906 -16.148438 14.296875 -16.109375 L 13.03125 -16.0625 L 13.03125 -8.03125 C 13.03125 -6.269531 12.960938 -4.832031 12.828125 -3.71875 L 19.390625 -3.71875 C 21.054688 -3.71875 22.46875 -4.28125 23.625 -5.40625 C 24.789062 -6.539062 25.375 -8.332031 25.375 -10.78125 L 28.5625 -10.78125 L 28.3125 0 L 2.453125 0 Z M 2.453125 -3.234375 "/></g></g></g><g fill="#002d69" fill-opacity="1"><g transform="translate(104.653182, 50.305249)"><g><path d="M 11.46875 0.78125 C 9.5 0.78125 7.769531 0.273438 6.28125 -0.734375 C 4.800781 -1.742188 3.644531 -3.1875 2.8125 -5.0625 C 1.976562 -6.945312 1.5625 -9.128906 1.5625 -11.609375 C 1.5625 -14.222656 2.066406 -16.566406 3.078125 -18.640625 C 4.097656 -20.710938 5.53125 -22.335938 7.375 -23.515625 C 9.21875 -24.691406 11.332031 -25.28125 13.71875 -25.28125 C 14.988281 -25.28125 16.441406 -24.984375 18.078125 -24.390625 L 18.078125 -27.625 C 18.078125 -29.195312 18.140625 -30.632812 18.265625 -31.9375 C 17.191406 -31.84375 16.035156 -31.796875 14.796875 -31.796875 L 14.796875 -35.515625 C 16.847656 -35.515625 18.507812 -35.660156 19.78125 -35.953125 C 21.0625 -36.242188 21.914062 -36.585938 22.34375 -36.984375 L 24.984375 -36.984375 L 24.984375 -7.890625 C 24.984375 -6.316406 24.914062 -4.878906 24.78125 -3.578125 C 25.863281 -3.671875 26.925781 -3.71875 27.96875 -3.71875 L 27.96875 0 L 18.65625 0 L 18.421875 -2.25 L 18.375 -2.25 C 16.445312 -0.226562 14.144531 0.78125 11.46875 0.78125 Z M 14.015625 -3.671875 C 14.828125 -3.671875 15.59375 -3.882812 16.3125 -4.3125 C 17.03125 -4.738281 17.617188 -5.3125 18.078125 -6.03125 L 18.078125 -20.71875 C 17.710938 -20.976562 17.203125 -21.195312 16.546875 -21.375 C 15.898438 -21.5625 15.25 -21.65625 14.59375 -21.65625 C 12.507812 -21.625 11.015625 -20.722656 10.109375 -18.953125 C 9.210938 -17.191406 8.765625 -14.988281 8.765625 -12.34375 C 8.765625 -9.988281 9.195312 -7.953125 10.0625 -6.234375 C 10.925781 -4.523438 12.242188 -3.671875 14.015625 -3.671875 Z M 14.015625 -3.671875 "/></g></g></g></g></g><g transform="matrix(1, 0, 0, 1, 185, 287)"><g clip-path="url(#155e403eba)"><g fill="#148f77" fill-opacity="1"><g transform="translate(1.565343, 49.86928)"><g><path d="M 3.453125 0 L 3.453125 -35.46875 L 15.5625 -35.46875 C 19.707031 -35.46875 23.125 -34.734375 25.8125 -33.265625 C 28.5 -31.796875 30.492188 -29.734375 31.796875 -27.078125 C 33.097656 -24.429688 33.75 -21.316406 33.75 -17.734375 C 33.75 -14.148438 33.097656 -11.03125 31.796875 -8.375 C 30.492188 -5.726562 28.5 -3.671875 25.8125 -2.203125 C 23.125 -0.734375 19.707031 0 15.5625 0 Z M 9.9375 -5.578125 L 15.25 -5.578125 C 18.226562 -5.578125 20.578125 -6.054688 22.296875 -7.015625 C 24.015625 -7.984375 25.242188 -9.367188 25.984375 -11.171875 C 26.734375 -12.984375 27.109375 -15.171875 27.109375 -17.734375 C 27.109375 -20.265625 26.734375 -22.441406 25.984375 -24.265625 C 25.242188 -26.097656 24.015625 -27.503906 22.296875 -28.484375 C 20.578125 -29.460938 18.226562 -29.953125 15.25 -29.953125 L 9.9375 -29.953125 Z M 9.9375 -5.578125 "/></g></g></g><g fill="#148f77" fill-opacity="1"><g transform="translate(35.30597, 49.86928)"><g><path d="M 1.171875 0 L 14.140625 -35.46875 L 21.4375 -35.46875 L 34.40625 0 L 27.515625 0 L 24.671875 -8.203125 L 10.84375 -8.203125 L 7.953125 0 Z M 12.625 -13.28125 L 22.90625 -13.28125 L 17.734375 -28.015625 Z M 12.625 -13.28125 "/></g></g></g><g fill="#148f77" fill-opacity="1"><g transform="translate(67.070573, 49.86928)"><g><path d="M 11.703125 0 L 11.703125 -30.25 L 1.375 -30.25 L 1.375 -35.46875 L 28.578125 -35.46875 L 28.578125 -30.25 L 18.1875 -30.25 L 18.1875 0 Z M 11.703125 0 "/></g></g></g><g fill="#148f77" fill-opacity="1"><g transform="translate(93.262338, 49.86928)"><g><path d="M 1.171875 0 L 14.140625 -35.46875 L 21.4375 -35.46875 L 34.40625 0 L 27.515625 0 L 24.671875 -8.203125 L 10.84375 -8.203125 L 7.953125 0 Z M 12.625 -13.28125 L 22.90625 -13.28125 L 17.734375 -28.015625 Z M 12.625 -13.28125 "/></g></g></g></g></g></svg>