<svg xmlns="http://www.w3.org/2000/svg" xmlns:xlink="http://www.w3.org/1999/xlink" width="500" zoomAndPan="magnify" viewBox="0 0 375 374.999991" height="500" preserveAspectRatio="xMidYMid meet" version="1.0"><defs><g/><clipPath id="0d022fae85"><path d="M 119.167969 119 L 255.667969 119 L 255.667969 229.238281 L 119.167969 229.238281 Z M 119.167969 119 " clip-rule="nonzero"/></clipPath><clipPath id="8e05be813b"><path d="M 123 91.988281 L 233 91.988281 L 233 182 L 123 182 Z M 123 91.988281 " clip-rule="nonzero"/></clipPath></defs><g clip-path="url(#0d022fae85)"><path fill="#209d5c" d="M 221.933594 155.734375 C 221.933594 149.984375 227.503906 145.320312 234.375 145.320312 C 241.246094 145.320312 246.816406 149.984375 246.816406 155.734375 C 246.816406 161.484375 241.246094 166.148438 234.375 166.148438 C 227.503906 166.148438 221.933594 161.484375 221.933594 155.734375 Z M 239.378906 170.367188 C 209.804688 198.765625 228.515625 171.308594 206.351562 119.417969 C 222.3125 241.945312 111.511719 242.285156 122.789062 175.214844 C 96.929688 250.664062 217.460938 250.410156 255.8125 152.070312 C 248.507812 159.21875 243.960938 165.964844 239.378906 170.367188 Z M 239.378906 170.367188 " fill-opacity="1" fill-rule="evenodd"/></g><path fill="#c8841a" d="M 140.597656 188.039062 L 128.023438 188.039062 C 128.425781 192.988281 129.726562 197.875 132.335938 202.261719 C 134.347656 205.644531 137.117188 208.632812 140.597656 210.871094 L 140.597656 188.035156 Z M 140.597656 188.039062 " fill-opacity="1" fill-rule="evenodd"/><path fill="#c8841a" d="M 144.285156 169.265625 L 144.285156 212.832031 C 145.46875 213.34375 146.714844 213.777344 148.027344 214.121094 C 152.160156 215.214844 156.429688 215.3125 160.566406 214.621094 L 160.566406 169.265625 Z M 144.285156 169.265625 " fill-opacity="1" fill-rule="evenodd"/><path fill="#c8841a" d="M 164.253906 152.808594 L 164.253906 213.792969 C 165.082031 213.554688 165.902344 213.292969 166.710938 212.996094 C 172.011719 211.070312 176.632812 208.015625 180.535156 204.429688 L 180.535156 152.8125 L 164.253906 152.8125 Z M 164.253906 152.808594 " fill-opacity="1" fill-rule="evenodd"/><path fill="#c8841a" d="M 184.222656 129.410156 L 184.222656 200.664062 C 184.796875 200.011719 185.351562 199.351562 185.886719 198.679688 C 194.011719 188.511719 198.4375 175.871094 200.503906 162.761719 L 200.503906 129.410156 Z M 184.222656 129.410156 " fill-opacity="1" fill-rule="evenodd"/><g clip-path="url(#8e05be813b)"><path fill="#545454" d="M 126.753906 181.335938 C 125.992188 182.152344 124.714844 182.195312 123.898438 181.433594 C 123.085938 180.671875 123.042969 179.394531 123.804688 178.578125 L 138.519531 162.847656 C 138.917969 162.421875 139.453125 162.210938 139.992188 162.210938 L 139.992188 162.199219 L 153.695312 162.199219 L 153.695312 147.484375 C 153.695312 146.363281 154.601562 145.453125 155.722656 145.453125 L 175.257812 145.453125 L 175.257812 124.015625 C 175.257812 122.894531 176.167969 121.984375 177.289062 121.984375 L 195.796875 121.984375 L 218.789062 101.292969 L 214.585938 96.945312 C 214.339844 96.6875 214.171875 96.355469 214.121094 95.976562 C 214 95.039062 214.664062 94.175781 215.601562 94.054688 L 230.734375 92.027344 C 230.949219 91.980469 231.179688 91.976562 231.410156 92.015625 C 232.34375 92.183594 232.96875 93.078125 232.800781 94.015625 L 230.109375 109.082031 L 230.105469 109.078125 C 230.042969 109.425781 229.875 109.753906 229.605469 110.015625 C 228.921875 110.671875 227.835938 110.652344 227.175781 109.96875 L 221.609375 104.207031 L 198.007812 125.445312 C 197.640625 125.816406 197.132812 126.042969 196.570312 126.042969 L 179.316406 126.042969 L 179.316406 147.484375 C 179.316406 148.605469 178.410156 149.511719 177.289062 149.511719 L 157.753906 149.511719 L 157.753906 164.226562 C 157.753906 165.347656 156.84375 166.257812 155.722656 166.257812 L 140.859375 166.257812 L 126.753906 181.339844 Z M 126.753906 181.335938 " fill-opacity="1" fill-rule="nonzero"/></g><g fill="#0b1d3e" fill-opacity="1"><g transform="translate(71.029813, 271.060852)"><g><path d="M 32.796875 -31.9375 L 21.46875 0 L 11.734375 0 L 0.40625 -31.9375 L 8.6875 -31.9375 L 16.609375 -7.828125 L 24.5625 -31.9375 Z M 32.796875 -31.9375 "/></g></g></g><g fill="#0b1d3e" fill-opacity="1"><g transform="translate(104.230528, 271.060852)"><g><path d="M 31.390625 0 L 23.609375 0 L 10.59375 -19.6875 L 10.59375 0 L 2.8125 0 L 2.8125 -31.9375 L 10.59375 -31.9375 L 23.609375 -12.140625 L 23.609375 -31.9375 L 31.390625 -31.9375 Z M 31.390625 0 "/></g></g></g><g fill="#0b1d3e" fill-opacity="1"><g transform="translate(138.431812, 271.060852)"><g><path d="M 10.59375 -25.703125 L 10.59375 -19.234375 L 21.015625 -19.234375 L 21.015625 -13.234375 L 10.59375 -13.234375 L 10.59375 -6.234375 L 22.375 -6.234375 L 22.375 0 L 2.8125 0 L 2.8125 -31.9375 L 22.375 -31.9375 L 22.375 -25.703125 Z M 10.59375 -25.703125 "/></g></g></g><g fill="#0b1d3e" fill-opacity="1"><g transform="translate(163.036723, 271.060852)"><g><path d="M 1.28125 -12.734375 C 1.28125 -15.335938 1.769531 -17.625 2.75 -19.59375 C 3.738281 -21.570312 5.082031 -23.09375 6.78125 -24.15625 C 8.476562 -25.21875 10.375 -25.75 12.46875 -25.75 C 14.132812 -25.75 15.65625 -25.398438 17.03125 -24.703125 C 18.414062 -24.003906 19.5 -23.0625 20.28125 -21.875 L 20.28125 -33.65625 L 28.0625 -33.65625 L 28.0625 0 L 20.28125 0 L 20.28125 -3.640625 C 19.550781 -2.421875 18.507812 -1.445312 17.15625 -0.71875 C 15.8125 0 14.25 0.359375 12.46875 0.359375 C 10.375 0.359375 8.476562 -0.175781 6.78125 -1.25 C 5.082031 -2.320312 3.738281 -3.851562 2.75 -5.84375 C 1.769531 -7.832031 1.28125 -10.128906 1.28125 -12.734375 Z M 20.28125 -12.6875 C 20.28125 -14.625 19.742188 -16.15625 18.671875 -17.28125 C 17.597656 -18.40625 16.285156 -18.96875 14.734375 -18.96875 C 13.191406 -18.96875 11.878906 -18.410156 10.796875 -17.296875 C 9.722656 -16.191406 9.1875 -14.671875 9.1875 -12.734375 C 9.1875 -10.796875 9.722656 -9.253906 10.796875 -8.109375 C 11.878906 -6.972656 13.191406 -6.40625 14.734375 -6.40625 C 16.285156 -6.40625 17.597656 -6.96875 18.671875 -8.09375 C 19.742188 -9.21875 20.28125 -10.75 20.28125 -12.6875 Z M 20.28125 -12.6875 "/></g></g></g><g fill="#209d5c" fill-opacity="1"><g transform="translate(194.726169, 271.060852)"><g><path d="M 14.78125 -31.9375 C 18.144531 -31.9375 21.082031 -31.265625 23.59375 -29.921875 C 26.113281 -28.585938 28.0625 -26.71875 29.4375 -24.3125 C 30.820312 -21.90625 31.515625 -19.125 31.515625 -15.96875 C 31.515625 -12.84375 30.820312 -10.066406 29.4375 -7.640625 C 28.0625 -5.210938 26.109375 -3.332031 23.578125 -2 C 21.046875 -0.664062 18.113281 0 14.78125 0 L 2.8125 0 L 2.8125 -31.9375 Z M 14.28125 -6.734375 C 17.21875 -6.734375 19.503906 -7.535156 21.140625 -9.140625 C 22.785156 -10.742188 23.609375 -13.019531 23.609375 -15.96875 C 23.609375 -18.90625 22.785156 -21.191406 21.140625 -22.828125 C 19.503906 -24.472656 17.21875 -25.296875 14.28125 -25.296875 L 10.59375 -25.296875 L 10.59375 -6.734375 Z M 14.28125 -6.734375 "/></g></g></g><g fill="#209d5c" fill-opacity="1"><g transform="translate(227.790437, 271.060852)"><g><path d="M 1.28125 -12.734375 C 1.28125 -15.335938 1.769531 -17.625 2.75 -19.59375 C 3.738281 -21.570312 5.082031 -23.09375 6.78125 -24.15625 C 8.476562 -25.21875 10.375 -25.75 12.46875 -25.75 C 14.25 -25.75 15.8125 -25.382812 17.15625 -24.65625 C 18.507812 -23.925781 19.550781 -22.96875 20.28125 -21.78125 L 20.28125 -25.375 L 28.0625 -25.375 L 28.0625 0 L 20.28125 0 L 20.28125 -3.59375 C 19.53125 -2.40625 18.476562 -1.445312 17.125 -0.71875 C 15.769531 0 14.203125 0.359375 12.421875 0.359375 C 10.359375 0.359375 8.476562 -0.175781 6.78125 -1.25 C 5.082031 -2.320312 3.738281 -3.851562 2.75 -5.84375 C 1.769531 -7.832031 1.28125 -10.128906 1.28125 -12.734375 Z M 20.28125 -12.6875 C 20.28125 -14.625 19.742188 -16.15625 18.671875 -17.28125 C 17.597656 -18.40625 16.285156 -18.96875 14.734375 -18.96875 C 13.191406 -18.96875 11.878906 -18.410156 10.796875 -17.296875 C 9.722656 -16.191406 9.1875 -14.671875 9.1875 -12.734375 C 9.1875 -10.796875 9.722656 -9.253906 10.796875 -8.109375 C 11.878906 -6.972656 13.191406 -6.40625 14.734375 -6.40625 C 16.285156 -6.40625 17.597656 -6.96875 18.671875 -8.09375 C 19.742188 -9.21875 20.28125 -10.75 20.28125 -12.6875 Z M 20.28125 -12.6875 "/></g></g></g><g fill="#209d5c" fill-opacity="1"><g transform="translate(258.671641, 271.060852)"><g><path d="M 16.96875 -6.59375 L 16.96875 0 L 13.015625 0 C 10.191406 0 7.988281 -0.6875 6.40625 -2.0625 C 4.832031 -3.445312 4.046875 -5.703125 4.046875 -8.828125 L 4.046875 -18.921875 L 0.953125 -18.921875 L 0.953125 -25.375 L 4.046875 -25.375 L 4.046875 -31.5625 L 11.828125 -31.5625 L 11.828125 -25.375 L 16.921875 -25.375 L 16.921875 -18.921875 L 11.828125 -18.921875 L 11.828125 -8.734375 C 11.828125 -7.972656 12.007812 -7.425781 12.375 -7.09375 C 12.738281 -6.757812 13.34375 -6.59375 14.1875 -6.59375 Z M 16.96875 -6.59375 "/></g></g></g><g fill="#209d5c" fill-opacity="1"><g transform="translate(277.136693, 271.060852)"><g><path d="M 1.28125 -12.734375 C 1.28125 -15.335938 1.769531 -17.625 2.75 -19.59375 C 3.738281 -21.570312 5.082031 -23.09375 6.78125 -24.15625 C 8.476562 -25.21875 10.375 -25.75 12.46875 -25.75 C 14.25 -25.75 15.8125 -25.382812 17.15625 -24.65625 C 18.507812 -23.925781 19.550781 -22.96875 20.28125 -21.78125 L 20.28125 -25.375 L 28.0625 -25.375 L 28.0625 0 L 20.28125 0 L 20.28125 -3.59375 C 19.53125 -2.40625 18.476562 -1.445312 17.125 -0.71875 C 15.769531 0 14.203125 0.359375 12.421875 0.359375 C 10.359375 0.359375 8.476562 -0.175781 6.78125 -1.25 C 5.082031 -2.320312 3.738281 -3.851562 2.75 -5.84375 C 1.769531 -7.832031 1.28125 -10.128906 1.28125 -12.734375 Z M 20.28125 -12.6875 C 20.28125 -14.625 19.742188 -16.15625 18.671875 -17.28125 C 17.597656 -18.40625 16.285156 -18.96875 14.734375 -18.96875 C 13.191406 -18.96875 11.878906 -18.410156 10.796875 -17.296875 C 9.722656 -16.191406 9.1875 -14.671875 9.1875 -12.734375 C 9.1875 -10.796875 9.722656 -9.253906 10.796875 -8.109375 C 11.878906 -6.972656 13.191406 -6.40625 14.734375 -6.40625 C 16.285156 -6.40625 17.597656 -6.96875 18.671875 -8.09375 C 19.742188 -9.21875 20.28125 -10.75 20.28125 -12.6875 Z M 20.28125 -12.6875 "/></g></g></g></svg>