<svg xmlns="http://www.w3.org/2000/svg" xmlns:xlink="http://www.w3.org/1999/xlink" width="500" zoomAndPan="magnify" viewBox="0 0 375 374.999991" height="500" preserveAspectRatio="xMidYMid meet" version="1.0"><defs><g/><clipPath id="ca1532e78f"><path d="M 162 105 L 214 105 L 214 175 L 162 175 Z M 162 105 " clip-rule="nonzero"/></clipPath><clipPath id="0b3619d26d"><path d="M 196.347656 101.152344 L 218.703125 114.308594 L 180.253906 179.628906 L 157.898438 166.46875 Z M 196.347656 101.152344 " clip-rule="nonzero"/></clipPath><clipPath id="a9274a04ec"><path d="M 207.527344 107.730469 C 210.488281 109.476562 212.640625 112.324219 213.503906 115.65625 C 214.363281 118.984375 213.867188 122.523438 212.125 125.488281 L 186.851562 168.421875 C 185.105469 171.386719 182.253906 173.535156 178.925781 174.398438 C 175.59375 175.261719 172.058594 174.765625 169.09375 173.019531 C 166.128906 171.273438 163.980469 168.421875 163.117188 165.09375 C 162.253906 161.765625 162.75 158.226562 164.496094 155.261719 L 189.769531 112.328125 C 191.511719 109.363281 194.363281 107.214844 197.695312 106.351562 C 201.023438 105.488281 204.5625 105.984375 207.527344 107.730469 Z M 207.527344 107.730469 " clip-rule="nonzero"/></clipPath><clipPath id="4bd4d94a3a"><path d="M 0.238281 0.359375 L 52 0.359375 L 52 70 L 0.238281 70 Z M 0.238281 0.359375 " clip-rule="nonzero"/></clipPath><clipPath id="d082c2343c"><path d="M 34.347656 -3.847656 L 56.703125 9.308594 L 18.253906 74.628906 L -4.101562 61.46875 Z M 34.347656 -3.847656 " clip-rule="nonzero"/></clipPath><clipPath id="61619268f5"><path d="M 45.527344 2.730469 C 48.488281 4.476562 50.640625 7.324219 51.503906 10.65625 C 52.363281 13.984375 51.867188 17.523438 50.125 20.488281 L 24.851562 63.421875 C 23.105469 66.386719 20.253906 68.535156 16.925781 69.398438 C 13.59375 70.261719 10.058594 69.765625 7.09375 68.019531 C 4.128906 66.273438 1.980469 63.421875 1.117188 60.09375 C 0.253906 56.765625 0.75 53.226562 2.496094 50.261719 L 27.769531 7.328125 C 29.511719 4.363281 32.363281 2.214844 35.695312 1.351562 C 39.023438 0.488281 42.5625 0.984375 45.527344 2.730469 Z M 45.527344 2.730469 " clip-rule="nonzero"/></clipPath><clipPath id="ac4b46c65a"><rect x="0" width="52" y="0" height="70"/></clipPath><clipPath id="51de4ce437"><path d="M 136.445312 105.871094 L 163.171875 105.871094 L 163.171875 132.597656 L 136.445312 132.597656 Z M 136.445312 105.871094 " clip-rule="nonzero"/></clipPath><clipPath id="3a7612feb7"><path d="M 149.808594 105.871094 C 142.429688 105.871094 136.445312 111.855469 136.445312 119.234375 C 136.445312 126.613281 142.429688 132.597656 149.808594 132.597656 C 157.1875 132.597656 163.171875 126.613281 163.171875 119.234375 C 163.171875 111.855469 157.1875 105.871094 149.808594 105.871094 Z M 149.808594 105.871094 " clip-rule="nonzero"/></clipPath><clipPath id="5639152899"><path d="M 0.445312 0.871094 L 27.171875 0.871094 L 27.171875 27.597656 L 0.445312 27.597656 Z M 0.445312 0.871094 " clip-rule="nonzero"/></clipPath><clipPath id="2cc27b37ca"><path d="M 13.808594 0.871094 C 6.429688 0.871094 0.445312 6.855469 0.445312 14.234375 C 0.445312 21.613281 6.429688 27.597656 13.808594 27.597656 C 21.1875 27.597656 27.171875 21.613281 27.171875 14.234375 C 27.171875 6.855469 21.1875 0.871094 13.808594 0.871094 Z M 13.808594 0.871094 " clip-rule="nonzero"/></clipPath><clipPath id="f97043f133"><rect x="0" width="28" y="0" height="28"/></clipPath><clipPath id="cf8ea8b9c8"><path d="M 128 0.28125 L 165 0.28125 L 165 50 L 128 50 Z M 128 0.28125 " clip-rule="nonzero"/></clipPath><clipPath id="71e649e662"><rect x="0" width="167" y="0" height="61"/></clipPath></defs><g clip-path="url(#ca1532e78f)"><g clip-path="url(#0b3619d26d)"><g clip-path="url(#a9274a04ec)"><g transform="matrix(1, 0, 0, 1, 162, 105)"><g clip-path="url(#ac4b46c65a)"><g clip-path="url(#4bd4d94a3a)"><g clip-path="url(#d082c2343c)"><g clip-path="url(#61619268f5)"><path fill="#1800ad" d="M 34.347656 -3.847656 L 56.703125 9.308594 L 18.253906 74.628906 L -4.101562 61.46875 Z M 34.347656 -3.847656 " fill-opacity="1" fill-rule="nonzero"/></g></g></g></g></g></g></g></g><g clip-path="url(#51de4ce437)"><g clip-path="url(#3a7612feb7)"><g transform="matrix(1, 0, 0, 1, 136, 105)"><g clip-path="url(#f97043f133)"><g clip-path="url(#5639152899)"><g clip-path="url(#2cc27b37ca)"><path fill="#1800ad" d="M 0.445312 0.871094 L 27.171875 0.871094 L 27.171875 27.597656 L 0.445312 27.597656 Z M 0.445312 0.871094 " fill-opacity="1" fill-rule="nonzero"/></g></g></g></g></g></g><g transform="matrix(1, 0, 0, 1, 20, 197)"><g clip-path="url(#71e649e662)"><g fill="#000000" fill-opacity="1"><g transform="translate(0.607625, 48.147637)"><g><path d="M 27.28125 0 L 19.65625 0 L 0.5 -45.71875 L 9.34375 -45.71875 L 23.40625 -10.921875 L 23.546875 -10.984375 L 37.59375 -45.71875 L 46.453125 -45.71875 Z M 27.28125 0 "/></g></g></g><g fill="#000000" fill-opacity="1"><g transform="translate(43.570924, 48.147637)"><g><path d="M 13.8125 0 L 5.4375 0 L 5.4375 -45.6875 L 12.625 -45.6875 L 37.515625 -13.703125 L 37.515625 -45.6875 L 45.859375 -45.6875 L 45.859375 0 L 38.703125 0 L 13.8125 -31.953125 Z M 13.8125 0 "/></g></g></g><g fill="#000000" fill-opacity="1"><g transform="translate(90.86692, 48.147637)"><g><path d="M 37.046875 0 L 5.4375 0 L 5.4375 -45.6875 L 36.75 -45.6875 L 36.75 -38.1875 L 13.8125 -38.1875 L 13.8125 -26.734375 L 33.625 -26.734375 L 33.625 -19.6875 L 13.8125 -19.6875 L 13.8125 -7.484375 L 37.046875 -7.484375 Z M 37.046875 0 "/></g></g></g><g clip-path="url(#cf8ea8b9c8)"><g fill="#000000" fill-opacity="1"><g transform="translate(126.105272, 48.147637)"><g><path d="M 19.015625 1.046875 C 16.578125 1.046875 14.332031 0.578125 12.28125 -0.359375 C 10.226562 -1.304688 8.460938 -2.617188 6.984375 -4.296875 C 5.503906 -5.972656 4.351562 -7.921875 3.53125 -10.140625 C 2.71875 -12.359375 2.3125 -14.734375 2.3125 -17.265625 C 2.3125 -19.796875 2.707031 -22.164062 3.5 -24.375 C 4.300781 -26.582031 5.445312 -28.523438 6.9375 -30.203125 C 8.425781 -31.878906 10.203125 -33.191406 12.265625 -34.140625 C 14.328125 -35.097656 16.609375 -35.578125 19.109375 -35.578125 C 20.992188 -35.578125 22.703125 -35.242188 24.234375 -34.578125 C 25.765625 -33.921875 27.082031 -33.082031 28.1875 -32.0625 C 29.300781 -31.039062 30.160156 -29.984375 30.765625 -28.890625 L 30.609375 -32.484375 L 30.609375 -47.296875 L 38.703125 -47.296875 L 38.703125 0 L 30.96875 0 L 30.96875 -5.8125 C 30.300781 -4.601562 29.394531 -3.476562 28.25 -2.4375 C 27.101562 -1.394531 25.757812 -0.554688 24.21875 0.078125 C 22.675781 0.722656 20.941406 1.046875 19.015625 1.046875 Z M 20.484375 -6.453125 C 21.898438 -6.453125 23.222656 -6.722656 24.453125 -7.265625 C 25.679688 -7.816406 26.757812 -8.582031 27.6875 -9.5625 C 28.625 -10.550781 29.351562 -11.703125 29.875 -13.015625 C 30.40625 -14.328125 30.671875 -15.742188 30.671875 -17.265625 C 30.671875 -18.785156 30.410156 -20.195312 29.890625 -21.5 C 29.378906 -22.800781 28.660156 -23.941406 27.734375 -24.921875 C 26.804688 -25.910156 25.722656 -26.675781 24.484375 -27.21875 C 23.253906 -27.769531 21.921875 -28.046875 20.484375 -28.046875 C 18.585938 -28.046875 16.863281 -27.582031 15.3125 -26.65625 C 13.769531 -25.726562 12.550781 -24.457031 11.65625 -22.84375 C 10.757812 -21.226562 10.3125 -19.367188 10.3125 -17.265625 C 10.3125 -15.222656 10.75 -13.382812 11.625 -11.75 C 12.5 -10.125 13.703125 -8.832031 15.234375 -7.875 C 16.765625 -6.925781 18.515625 -6.453125 20.484375 -6.453125 Z M 20.484375 -6.453125 "/></g></g></g></g></g></g><g fill="#1800ad" fill-opacity="1"><g transform="translate(186.812834, 246.945087)"><g><path d="M 25.84375 0 L 6.078125 0 L 6.078125 -51.015625 L 25.734375 -51.015625 C 29.804688 -51.015625 33.503906 -50.40625 36.828125 -49.1875 C 40.148438 -47.976562 43.003906 -46.25 45.390625 -44 C 47.785156 -41.75 49.625 -39.066406 50.90625 -35.953125 C 52.195312 -32.835938 52.84375 -29.367188 52.84375 -25.546875 C 52.84375 -21.710938 52.195312 -18.226562 50.90625 -15.09375 C 49.625 -11.957031 47.796875 -9.265625 45.421875 -7.015625 C 43.046875 -4.765625 40.203125 -3.03125 36.890625 -1.8125 C 33.578125 -0.601562 29.894531 0 25.84375 0 Z M 15.265625 -42.71875 L 15.265625 -8.328125 L 25.546875 -8.328125 C 29.265625 -8.328125 32.460938 -9.019531 35.140625 -10.40625 C 37.816406 -11.789062 39.867188 -13.757812 41.296875 -16.3125 C 42.722656 -18.863281 43.4375 -21.890625 43.4375 -25.390625 C 43.4375 -28.867188 42.734375 -31.90625 41.328125 -34.5 C 39.929688 -37.101562 37.894531 -39.125 35.21875 -40.5625 C 32.539062 -42 29.289062 -42.71875 25.46875 -42.71875 Z M 15.265625 -42.71875 "/></g></g></g><g fill="#1800ad" fill-opacity="1"><g transform="translate(237.711287, 246.945087)"><g><path d="M 20.734375 1.15625 C 18.140625 1.15625 15.734375 0.632812 13.515625 -0.40625 C 11.304688 -1.457031 9.378906 -2.921875 7.734375 -4.796875 C 6.097656 -6.671875 4.832031 -8.847656 3.9375 -11.328125 C 3.039062 -13.804688 2.59375 -16.457031 2.59375 -19.28125 C 2.59375 -22.101562 3.046875 -24.742188 3.953125 -27.203125 C 4.867188 -29.671875 6.144531 -31.84375 7.78125 -33.71875 C 9.414062 -35.59375 11.332031 -37.0625 13.53125 -38.125 C 15.738281 -39.1875 18.128906 -39.71875 20.703125 -39.71875 C 23.847656 -39.71875 26.644531 -39.035156 29.09375 -37.671875 C 31.550781 -36.304688 33.394531 -34.425781 34.625 -32.03125 L 34.625 -38.5625 L 43.25 -38.5625 L 43.25 0 L 34.625 0 L 34.625 -6.484375 C 33.375 -4.085938 31.523438 -2.210938 29.078125 -0.859375 C 26.640625 0.484375 23.859375 1.15625 20.734375 1.15625 Z M 22.921875 -7.234375 C 24.492188 -7.234375 25.96875 -7.539062 27.34375 -8.15625 C 28.71875 -8.769531 29.921875 -9.617188 30.953125 -10.703125 C 31.992188 -11.796875 32.800781 -13.070312 33.375 -14.53125 C 33.957031 -16 34.25 -17.582031 34.25 -19.28125 C 34.25 -20.957031 33.953125 -22.523438 33.359375 -23.984375 C 32.773438 -25.441406 31.96875 -26.722656 30.9375 -27.828125 C 29.914062 -28.929688 28.71875 -29.785156 27.34375 -30.390625 C 25.96875 -31.003906 24.492188 -31.3125 22.921875 -31.3125 C 20.835938 -31.3125 18.941406 -30.8125 17.234375 -29.8125 C 15.523438 -28.8125 14.15625 -27.410156 13.125 -25.609375 C 12.101562 -23.816406 11.59375 -21.707031 11.59375 -19.28125 C 11.59375 -16.78125 12.109375 -14.628906 13.140625 -12.828125 C 14.179688 -11.023438 15.5625 -9.640625 17.28125 -8.671875 C 19.007812 -7.710938 20.890625 -7.234375 22.921875 -7.234375 Z M 22.921875 -7.234375 "/></g></g></g><g fill="#1800ad" fill-opacity="1"><g transform="translate(281.821826, 246.945087)"><g><path d="M 29.03125 0 L 21.1875 0 C 20.039062 0 18.859375 -0.101562 17.640625 -0.3125 C 16.429688 -0.53125 15.273438 -0.925781 14.171875 -1.5 C 13.078125 -2.070312 12.097656 -2.898438 11.234375 -3.984375 C 10.367188 -5.078125 9.679688 -6.492188 9.171875 -8.234375 C 8.660156 -9.972656 8.40625 -12.117188 8.40625 -14.671875 L 8.40625 -30.75 L 0.40625 -30.75 L 0.40625 -38.5625 L 8.40625 -38.5625 L 8.40625 -49.84375 L 17.484375 -49.921875 L 17.484375 -38.5625 L 29.03125 -38.5625 L 29.03125 -30.75 L 17.484375 -30.75 L 17.484375 -14.25 C 17.484375 -12.445312 17.742188 -11.054688 18.265625 -10.078125 C 18.785156 -9.109375 19.476562 -8.441406 20.34375 -8.078125 C 21.207031 -7.710938 22.113281 -7.53125 23.0625 -7.53125 L 29.03125 -7.53125 Z M 29.03125 0 "/></g></g></g><g fill="#1800ad" fill-opacity="1"><g transform="translate(308.418798, 246.945087)"><g><path d="M 20.734375 1.15625 C 18.140625 1.15625 15.734375 0.632812 13.515625 -0.40625 C 11.304688 -1.457031 9.378906 -2.921875 7.734375 -4.796875 C 6.097656 -6.671875 4.832031 -8.847656 3.9375 -11.328125 C 3.039062 -13.804688 2.59375 -16.457031 2.59375 -19.28125 C 2.59375 -22.101562 3.046875 -24.742188 3.953125 -27.203125 C 4.867188 -29.671875 6.144531 -31.84375 7.78125 -33.71875 C 9.414062 -35.59375 11.332031 -37.0625 13.53125 -38.125 C 15.738281 -39.1875 18.128906 -39.71875 20.703125 -39.71875 C 23.847656 -39.71875 26.644531 -39.035156 29.09375 -37.671875 C 31.550781 -36.304688 33.394531 -34.425781 34.625 -32.03125 L 34.625 -38.5625 L 43.25 -38.5625 L 43.25 0 L 34.625 0 L 34.625 -6.484375 C 33.375 -4.085938 31.523438 -2.210938 29.078125 -0.859375 C 26.640625 0.484375 23.859375 1.15625 20.734375 1.15625 Z M 22.921875 -7.234375 C 24.492188 -7.234375 25.96875 -7.539062 27.34375 -8.15625 C 28.71875 -8.769531 29.921875 -9.617188 30.953125 -10.703125 C 31.992188 -11.796875 32.800781 -13.070312 33.375 -14.53125 C 33.957031 -16 34.25 -17.582031 34.25 -19.28125 C 34.25 -20.957031 33.953125 -22.523438 33.359375 -23.984375 C 32.773438 -25.441406 31.96875 -26.722656 30.9375 -27.828125 C 29.914062 -28.929688 28.71875 -29.785156 27.34375 -30.390625 C 25.96875 -31.003906 24.492188 -31.3125 22.921875 -31.3125 C 20.835938 -31.3125 18.941406 -30.8125 17.234375 -29.8125 C 15.523438 -28.8125 14.15625 -27.410156 13.125 -25.609375 C 12.101562 -23.816406 11.59375 -21.707031 11.59375 -19.28125 C 11.59375 -16.78125 12.109375 -14.628906 13.140625 -12.828125 C 14.179688 -11.023438 15.5625 -9.640625 17.28125 -8.671875 C 19.007812 -7.710938 20.890625 -7.234375 22.921875 -7.234375 Z M 22.921875 -7.234375 "/></g></g></g></svg>