<svg xmlns="http://www.w3.org/2000/svg" xmlns:xlink="http://www.w3.org/1999/xlink" width="500" zoomAndPan="magnify" viewBox="0 0 375 374.999991" height="500" preserveAspectRatio="xMidYMid meet" version="1.0"><defs><g/><clipPath id="d4c42c0bd8"><path d="M 70.972656 143.792969 L 306.464844 143.792969 L 306.464844 231.203125 L 70.972656 231.203125 Z M 70.972656 143.792969 " clip-rule="nonzero"/></clipPath><clipPath id="271d56a74d"><path d="M 48.945312 163.511719 L 326.054688 163.511719 L 326.054688 211.488281 L 48.945312 211.488281 Z M 48.945312 163.511719 " clip-rule="nonzero"/></clipPath><clipPath id="a8233a328d"><path d="M 0.945312 0.511719 L 278.054688 0.511719 L 278.054688 48.488281 L 0.945312 48.488281 Z M 0.945312 0.511719 " clip-rule="nonzero"/></clipPath><clipPath id="c30d8f254b"><rect x="0" width="279" y="0" height="49"/></clipPath></defs><g clip-path="url(#d4c42c0bd8)"><path stroke-linecap="butt" transform="matrix(0.75, 0, 0, 0.75, 70.966531, 143.792729)" fill="none" stroke-linejoin="miter" d="M 0.00816695 0.000319723 L 314.101938 0.000319723 L 314.101938 116.547202 L 0.00816695 116.547202 Z M 0.00816695 0.000319723 " stroke="#000000" stroke-width="10" stroke-opacity="1" stroke-miterlimit="4"/></g><g clip-path="url(#271d56a74d)"><g transform="matrix(1, 0, 0, 1, 48, 163)"><g clip-path="url(#c30d8f254b)"><g clip-path="url(#a8233a328d)"><path fill="#ffffff" d="M 0.945312 0.511719 L 278.125 0.511719 L 278.125 48.488281 L 0.945312 48.488281 Z M 0.945312 0.511719 " fill-opacity="1" fill-rule="nonzero"/></g></g></g></g><g fill="#000000" fill-opacity="1"><g transform="translate(79.158897, 205.697624)"><g><path d="M 10.171875 -27.484375 L 16.875 -12.53125 L 23.5625 -27.484375 L 34.8125 -27.484375 L 20.078125 0 L 13.65625 0 L -1.078125 -27.484375 Z M 10.171875 -27.484375 "/></g></g></g><g fill="#000000" fill-opacity="1"><g transform="translate(108.345014, 205.697624)"><g><path d="M 3.21875 0 L 3.21875 -27.484375 L 12.6875 -27.484375 L 12.6875 -24.578125 L 12.796875 -24.578125 C 15.265625 -27.046875 17.890625 -28.28125 20.671875 -28.28125 C 22.023438 -28.28125 23.375 -28.097656 24.71875 -27.734375 C 26.0625 -27.378906 27.347656 -26.828125 28.578125 -26.078125 C 29.804688 -25.328125 30.804688 -24.265625 31.578125 -22.890625 C 32.347656 -21.515625 32.734375 -19.921875 32.734375 -18.109375 L 32.734375 0 L 23.25 0 L 23.25 -15.53125 C 23.25 -16.957031 22.789062 -18.207031 21.875 -19.28125 C 20.96875 -20.351562 19.78125 -20.890625 18.3125 -20.890625 C 16.882812 -20.890625 15.585938 -20.332031 14.421875 -19.21875 C 13.265625 -18.113281 12.6875 -16.882812 12.6875 -15.53125 L 12.6875 0 Z M 3.21875 0 "/></g></g></g><g fill="#000000" fill-opacity="1"><g transform="translate(139.191325, 205.697624)"><g><path d="M 31.015625 -12.421875 L 11.09375 -12.421875 C 11.09375 -10.492188 11.71875 -9.066406 12.96875 -8.140625 C 14.21875 -7.210938 15.570312 -6.75 17.03125 -6.75 C 18.570312 -6.75 19.785156 -6.953125 20.671875 -7.359375 C 21.566406 -7.773438 22.585938 -8.585938 23.734375 -9.796875 L 30.578125 -6.375 C 27.722656 -1.59375 22.976562 0.796875 16.34375 0.796875 C 12.195312 0.796875 8.640625 -0.617188 5.671875 -3.453125 C 2.710938 -6.296875 1.234375 -9.71875 1.234375 -13.71875 C 1.234375 -17.71875 2.710938 -21.144531 5.671875 -24 C 8.640625 -26.851562 12.195312 -28.28125 16.34375 -28.28125 C 20.695312 -28.28125 24.238281 -27.019531 26.96875 -24.5 C 29.695312 -21.988281 31.0625 -18.394531 31.0625 -13.71875 C 31.0625 -13.070312 31.046875 -12.640625 31.015625 -12.421875 Z M 11.359375 -17.671875 L 21.796875 -17.671875 C 21.585938 -19.097656 21.023438 -20.195312 20.109375 -20.96875 C 19.203125 -21.738281 18.035156 -22.125 16.609375 -22.125 C 15.035156 -22.125 13.785156 -21.710938 12.859375 -20.890625 C 11.929688 -20.066406 11.429688 -18.992188 11.359375 -17.671875 Z M 11.359375 -17.671875 "/></g></g></g><g fill="#000000" fill-opacity="1"><g transform="translate(166.93147, 205.697624)"><g><path d="M 5.078125 -3.40625 C 2.515625 -6.207031 1.234375 -9.640625 1.234375 -13.703125 C 1.234375 -17.773438 2.515625 -21.222656 5.078125 -24.046875 C 7.648438 -26.867188 10.921875 -28.28125 14.890625 -28.28125 C 18.535156 -28.28125 21.535156 -27.140625 23.890625 -24.859375 L 23.890625 -46.0625 L 33.375 -46.0625 L 33.375 0 L 24 0 L 24 -3.109375 L 23.890625 -3.109375 C 21.535156 -0.503906 18.535156 0.796875 14.890625 0.796875 C 10.921875 0.796875 7.648438 -0.601562 5.078125 -3.40625 Z M 13.140625 -18.359375 C 11.910156 -17.148438 11.296875 -15.597656 11.296875 -13.703125 C 11.296875 -11.816406 11.882812 -10.273438 13.0625 -9.078125 C 14.25 -7.878906 15.804688 -7.28125 17.734375 -7.28125 C 19.585938 -7.28125 21.113281 -7.882812 22.3125 -9.09375 C 23.507812 -10.3125 24.109375 -11.851562 24.109375 -13.71875 C 24.109375 -15.601562 23.488281 -17.148438 22.25 -18.359375 C 21.019531 -19.578125 19.515625 -20.1875 17.734375 -20.1875 C 15.910156 -20.1875 14.378906 -19.578125 13.140625 -18.359375 Z M 13.140625 -18.359375 "/></g></g></g><g fill="#000000" fill-opacity="1"><g transform="translate(199.626291, 207.002917)"><g><path d="M 15.421875 0.53125 C 12.859375 0.53125 10.617188 -0.078125 8.703125 -1.296875 C 6.796875 -2.515625 5.320312 -4.234375 4.28125 -6.453125 C 3.238281 -8.679688 2.71875 -11.316406 2.71875 -14.359375 C 2.71875 -17.421875 3.238281 -20.066406 4.28125 -22.296875 C 5.320312 -24.523438 6.796875 -26.238281 8.703125 -27.4375 C 10.617188 -28.632812 12.859375 -29.234375 15.421875 -29.234375 C 18.015625 -29.234375 20.234375 -28.582031 22.078125 -27.28125 C 23.929688 -25.988281 25.175781 -24.238281 25.8125 -22.03125 L 25.15625 -22.03125 L 25.15625 -39.625 C 25.15625 -40.414062 25.363281 -41.015625 25.78125 -41.421875 C 26.195312 -41.835938 26.796875 -42.046875 27.578125 -42.046875 C 28.328125 -42.046875 28.90625 -41.835938 29.3125 -41.421875 C 29.726562 -41.015625 29.9375 -40.414062 29.9375 -39.625 L 29.9375 -2.0625 C 29.9375 -1.28125 29.738281 -0.671875 29.34375 -0.234375 C 28.957031 0.191406 28.367188 0.40625 27.578125 0.40625 C 26.828125 0.40625 26.242188 0.191406 25.828125 -0.234375 C 25.421875 -0.671875 25.21875 -1.28125 25.21875 -2.0625 L 25.21875 -7.671875 L 25.875 -6.84375 C 25.238281 -4.601562 23.984375 -2.8125 22.109375 -1.46875 C 20.242188 -0.132812 18.015625 0.53125 15.421875 0.53125 Z M 16.421875 -3.3125 C 18.191406 -3.3125 19.742188 -3.742188 21.078125 -4.609375 C 22.421875 -5.472656 23.457031 -6.734375 24.1875 -8.390625 C 24.914062 -10.046875 25.28125 -12.035156 25.28125 -14.359375 C 25.28125 -17.941406 24.484375 -20.675781 22.890625 -22.5625 C 21.296875 -24.445312 19.140625 -25.390625 16.421875 -25.390625 C 14.609375 -25.390625 13.039062 -24.96875 11.71875 -24.125 C 10.40625 -23.28125 9.382812 -22.039062 8.65625 -20.40625 C 7.925781 -18.769531 7.5625 -16.753906 7.5625 -14.359375 C 7.5625 -10.804688 8.367188 -8.078125 9.984375 -6.171875 C 11.597656 -4.265625 13.742188 -3.3125 16.421875 -3.3125 Z M 16.421875 -3.3125 "/></g></g></g><g fill="#000000" fill-opacity="1"><g transform="translate(230.27961, 207.002917)"><g><path d="M 13.53125 0.53125 C 11.5625 0.53125 9.796875 0.148438 8.234375 -0.609375 C 6.679688 -1.378906 5.453125 -2.429688 4.546875 -3.765625 C 3.640625 -5.109375 3.1875 -6.609375 3.1875 -8.265625 C 3.1875 -10.390625 3.726562 -12.0625 4.8125 -13.28125 C 5.894531 -14.507812 7.6875 -15.378906 10.1875 -15.890625 C 12.6875 -16.398438 16.101562 -16.65625 20.4375 -16.65625 L 23.09375 -16.65625 L 23.09375 -13.53125 L 20.5 -13.53125 C 17.300781 -13.53125 14.785156 -13.378906 12.953125 -13.078125 C 11.128906 -12.785156 9.851562 -12.285156 9.125 -11.578125 C 8.394531 -10.867188 8.03125 -9.863281 8.03125 -8.5625 C 8.03125 -6.945312 8.59375 -5.628906 9.71875 -4.609375 C 10.84375 -3.585938 12.367188 -3.078125 14.296875 -3.078125 C 15.867188 -3.078125 17.253906 -3.445312 18.453125 -4.1875 C 19.660156 -4.9375 20.609375 -5.960938 21.296875 -7.265625 C 21.984375 -8.566406 22.328125 -10.0625 22.328125 -11.75 L 22.328125 -18.484375 C 22.328125 -20.921875 21.832031 -22.679688 20.84375 -23.765625 C 19.863281 -24.847656 18.25 -25.390625 16 -25.390625 C 14.625 -25.390625 13.242188 -25.210938 11.859375 -24.859375 C 10.484375 -24.503906 9.03125 -23.9375 7.5 -23.15625 C 6.945312 -22.875 6.472656 -22.78125 6.078125 -22.875 C 5.691406 -22.976562 5.378906 -23.1875 5.140625 -23.5 C 4.898438 -23.820312 4.757812 -24.1875 4.71875 -24.59375 C 4.6875 -25.007812 4.773438 -25.414062 4.984375 -25.8125 C 5.203125 -26.207031 5.550781 -26.519531 6.03125 -26.75 C 7.757812 -27.613281 9.46875 -28.242188 11.15625 -28.640625 C 12.851562 -29.035156 14.46875 -29.234375 16 -29.234375 C 18.488281 -29.234375 20.535156 -28.828125 22.140625 -28.015625 C 23.753906 -27.210938 24.957031 -25.992188 25.75 -24.359375 C 26.539062 -22.722656 26.9375 -20.628906 26.9375 -18.078125 L 26.9375 -2.0625 C 26.9375 -1.28125 26.75 -0.671875 26.375 -0.234375 C 26 0.191406 25.457031 0.40625 24.75 0.40625 C 24 0.40625 23.425781 0.191406 23.03125 -0.234375 C 22.632812 -0.671875 22.4375 -1.28125 22.4375 -2.0625 L 22.4375 -6.671875 L 22.96875 -6.671875 C 22.65625 -5.171875 22.054688 -3.890625 21.171875 -2.828125 C 20.285156 -1.765625 19.191406 -0.9375 17.890625 -0.34375 C 16.597656 0.238281 15.144531 0.53125 13.53125 0.53125 Z M 13.53125 0.53125 "/></g></g></g><g fill="#000000" fill-opacity="1"><g transform="translate(257.802615, 207.002917)"><g><path d="M 16 0.53125 C 13.757812 0.53125 11.878906 0.128906 10.359375 -0.671875 C 8.847656 -1.484375 7.71875 -2.664062 6.96875 -4.21875 C 6.21875 -5.78125 5.84375 -7.679688 5.84375 -9.921875 L 5.84375 -24.984375 L 1.890625 -24.984375 C 1.222656 -24.984375 0.710938 -25.148438 0.359375 -25.484375 C 0.00390625 -25.816406 -0.171875 -26.28125 -0.171875 -26.875 C -0.171875 -27.46875 0.00390625 -27.921875 0.359375 -28.234375 C 0.710938 -28.546875 1.222656 -28.703125 1.890625 -28.703125 L 5.84375 -28.703125 L 5.84375 -35.5 C 5.84375 -36.28125 6.054688 -36.878906 6.484375 -37.296875 C 6.921875 -37.710938 7.515625 -37.921875 8.265625 -37.921875 C 9.015625 -37.921875 9.59375 -37.710938 10 -37.296875 C 10.414062 -36.878906 10.625 -36.28125 10.625 -35.5 L 10.625 -28.703125 L 18.078125 -28.703125 C 18.742188 -28.703125 19.253906 -28.546875 19.609375 -28.234375 C 19.960938 -27.921875 20.140625 -27.46875 20.140625 -26.875 C 20.140625 -26.28125 19.960938 -25.816406 19.609375 -25.484375 C 19.253906 -25.148438 18.742188 -24.984375 18.078125 -24.984375 L 10.625 -24.984375 L 10.625 -10.390625 C 10.625 -8.148438 11.097656 -6.445312 12.046875 -5.28125 C 12.992188 -4.125 14.53125 -3.546875 16.65625 -3.546875 C 17.40625 -3.546875 18.046875 -3.625 18.578125 -3.78125 C 19.109375 -3.9375 19.550781 -4.015625 19.90625 -4.015625 C 20.257812 -4.054688 20.550781 -3.9375 20.78125 -3.65625 C 21.019531 -3.382812 21.140625 -2.914062 21.140625 -2.25 C 21.140625 -1.769531 21.050781 -1.332031 20.875 -0.9375 C 20.695312 -0.550781 20.394531 -0.28125 19.96875 -0.125 C 19.488281 0.0390625 18.863281 0.191406 18.09375 0.328125 C 17.332031 0.460938 16.632812 0.53125 16 0.53125 Z M 16 0.53125 "/></g></g></g><g fill="#000000" fill-opacity="1"><g transform="translate(274.69439, 207.002917)"><g><path d="M 13.53125 0.53125 C 11.5625 0.53125 9.796875 0.148438 8.234375 -0.609375 C 6.679688 -1.378906 5.453125 -2.429688 4.546875 -3.765625 C 3.640625 -5.109375 3.1875 -6.609375 3.1875 -8.265625 C 3.1875 -10.390625 3.726562 -12.0625 4.8125 -13.28125 C 5.894531 -14.507812 7.6875 -15.378906 10.1875 -15.890625 C 12.6875 -16.398438 16.101562 -16.65625 20.4375 -16.65625 L 23.09375 -16.65625 L 23.09375 -13.53125 L 20.5 -13.53125 C 17.300781 -13.53125 14.785156 -13.378906 12.953125 -13.078125 C 11.128906 -12.785156 9.851562 -12.285156 9.125 -11.578125 C 8.394531 -10.867188 8.03125 -9.863281 8.03125 -8.5625 C 8.03125 -6.945312 8.59375 -5.628906 9.71875 -4.609375 C 10.84375 -3.585938 12.367188 -3.078125 14.296875 -3.078125 C 15.867188 -3.078125 17.253906 -3.445312 18.453125 -4.1875 C 19.660156 -4.9375 20.609375 -5.960938 21.296875 -7.265625 C 21.984375 -8.566406 22.328125 -10.0625 22.328125 -11.75 L 22.328125 -18.484375 C 22.328125 -20.921875 21.832031 -22.679688 20.84375 -23.765625 C 19.863281 -24.847656 18.25 -25.390625 16 -25.390625 C 14.625 -25.390625 13.242188 -25.210938 11.859375 -24.859375 C 10.484375 -24.503906 9.03125 -23.9375 7.5 -23.15625 C 6.945312 -22.875 6.472656 -22.78125 6.078125 -22.875 C 5.691406 -22.976562 5.378906 -23.1875 5.140625 -23.5 C 4.898438 -23.820312 4.757812 -24.1875 4.71875 -24.59375 C 4.6875 -25.007812 4.773438 -25.414062 4.984375 -25.8125 C 5.203125 -26.207031 5.550781 -26.519531 6.03125 -26.75 C 7.757812 -27.613281 9.46875 -28.242188 11.15625 -28.640625 C 12.851562 -29.035156 14.46875 -29.234375 16 -29.234375 C 18.488281 -29.234375 20.535156 -28.828125 22.140625 -28.015625 C 23.753906 -27.210938 24.957031 -25.992188 25.75 -24.359375 C 26.539062 -22.722656 26.9375 -20.628906 26.9375 -18.078125 L 26.9375 -2.0625 C 26.9375 -1.28125 26.75 -0.671875 26.375 -0.234375 C 26 0.191406 25.457031 0.40625 24.75 0.40625 C 24 0.40625 23.425781 0.191406 23.03125 -0.234375 C 22.632812 -0.671875 22.4375 -1.28125 22.4375 -2.0625 L 22.4375 -6.671875 L 22.96875 -6.671875 C 22.65625 -5.171875 22.054688 -3.890625 21.171875 -2.828125 C 20.285156 -1.765625 19.191406 -0.9375 17.890625 -0.34375 C 16.597656 0.238281 15.144531 0.53125 13.53125 0.53125 Z M 13.53125 0.53125 "/></g></g></g></svg>