<svg xmlns="http://www.w3.org/2000/svg" xmlns:xlink="http://www.w3.org/1999/xlink" width="500" zoomAndPan="magnify" viewBox="0 0 375 374.999991" height="500" preserveAspectRatio="xMidYMid meet" version="1.0"><defs><g/><clipPath id="718ec84d2d"><path d="M 28.894531 16.636719 L 335.277344 16.636719 L 335.277344 130.359375 L 28.894531 130.359375 Z M 28.894531 16.636719 " clip-rule="nonzero"/></clipPath><clipPath id="e8f9fe26df"><path d="M 0.238281 42.289062 L 360.761719 42.289062 L 360.761719 104.710938 L 0.238281 104.710938 Z M 0.238281 42.289062 " clip-rule="nonzero"/></clipPath><clipPath id="0c6bb0c7db"><path d="M 0.238281 0.289062 L 360.761719 0.289062 L 360.761719 62.710938 L 0.238281 62.710938 Z M 0.238281 0.289062 " clip-rule="nonzero"/></clipPath><clipPath id="3f6c40c266"><rect x="0" width="361" y="0" height="63"/></clipPath><clipPath id="ce0203ee84"><rect x="0" width="361" y="0" height="148"/></clipPath></defs><g transform="matrix(1, 0, 0, 1, 7, 114)"><g clip-path="url(#ce0203ee84)"><g clip-path="url(#718ec84d2d)"><path stroke-linecap="butt" transform="matrix(0.975758, 0, 0, 0.975758, 28.888648, 16.636354)" fill="none" stroke-linejoin="miter" d="M 0.00602902 0.000374159 L 314.100675 0.000374159 L 314.100675 116.548347 L 0.00602902 116.548347 Z M 0.00602902 0.000374159 " stroke="#000000" stroke-width="7.686329" stroke-opacity="1" stroke-miterlimit="4"/></g><g clip-path="url(#e8f9fe26df)"><g transform="matrix(1, 0, 0, 1, 0, 42)"><g clip-path="url(#3f6c40c266)"><g clip-path="url(#0c6bb0c7db)"><path fill="#ffffff" d="M 0.238281 0.289062 L 360.851562 0.289062 L 360.851562 62.710938 L 0.238281 62.710938 Z M 0.238281 0.289062 " fill-opacity="1" fill-rule="nonzero"/></g></g></g></g><g fill="#000000" fill-opacity="1"><g transform="translate(39.547009, 97.175309)"><g><path d="M 13.234375 -35.75 L 21.953125 -16.3125 L 30.65625 -35.75 L 45.296875 -35.75 L 26.140625 0 L 17.765625 0 L -1.390625 -35.75 Z M 13.234375 -35.75 "/></g></g></g><g fill="#000000" fill-opacity="1"><g transform="translate(77.518474, 97.175309)"><g><path d="M 4.1875 0 L 4.1875 -35.75 L 16.515625 -35.75 L 16.515625 -31.984375 L 16.65625 -31.984375 C 19.863281 -35.191406 23.28125 -36.796875 26.90625 -36.796875 C 28.664062 -36.796875 30.414062 -36.5625 32.15625 -36.09375 C 33.90625 -35.632812 35.578125 -34.914062 37.171875 -33.9375 C 38.773438 -32.957031 40.078125 -31.570312 41.078125 -29.78125 C 42.078125 -28 42.578125 -25.921875 42.578125 -23.546875 L 42.578125 0 L 30.25 0 L 30.25 -20.203125 C 30.25 -22.066406 29.65625 -23.691406 28.46875 -25.078125 C 27.28125 -26.472656 25.734375 -27.171875 23.828125 -27.171875 C 21.972656 -27.171875 20.289062 -26.453125 18.78125 -25.015625 C 17.269531 -23.578125 16.515625 -21.972656 16.515625 -20.203125 L 16.515625 0 Z M 4.1875 0 "/></g></g></g><g fill="#000000" fill-opacity="1"><g transform="translate(117.649871, 97.175309)"><g><path d="M 40.34375 -16.171875 L 14.421875 -16.171875 C 14.421875 -13.660156 15.234375 -11.800781 16.859375 -10.59375 C 18.484375 -9.382812 20.25 -8.78125 22.15625 -8.78125 C 24.15625 -8.78125 25.734375 -9.046875 26.890625 -9.578125 C 28.054688 -10.117188 29.382812 -11.175781 30.875 -12.75 L 39.796875 -8.296875 C 36.078125 -2.066406 29.894531 1.046875 21.25 1.046875 C 15.863281 1.046875 11.242188 -0.796875 7.390625 -4.484375 C 3.535156 -8.179688 1.609375 -12.628906 1.609375 -17.828125 C 1.609375 -23.035156 3.535156 -27.5 7.390625 -31.21875 C 11.242188 -34.9375 15.863281 -36.796875 21.25 -36.796875 C 26.914062 -36.796875 31.523438 -35.15625 35.078125 -31.875 C 38.640625 -28.601562 40.421875 -23.925781 40.421875 -17.84375 C 40.421875 -17 40.394531 -16.441406 40.34375 -16.171875 Z M 14.78125 -23 L 28.359375 -23 C 28.078125 -24.851562 27.34375 -26.28125 26.15625 -27.28125 C 24.976562 -28.28125 23.460938 -28.78125 21.609375 -28.78125 C 19.554688 -28.78125 17.925781 -28.242188 16.71875 -27.171875 C 15.507812 -26.109375 14.863281 -24.71875 14.78125 -23 Z M 14.78125 -23 "/></g></g></g><g fill="#000000" fill-opacity="1"><g transform="translate(153.74011, 97.175309)"><g><path d="M 6.625 -4.421875 C 3.28125 -8.066406 1.609375 -12.535156 1.609375 -17.828125 C 1.609375 -23.128906 3.28125 -27.613281 6.625 -31.28125 C 9.96875 -34.957031 14.21875 -36.796875 19.375 -36.796875 C 24.113281 -36.796875 28.015625 -35.304688 31.078125 -32.328125 L 31.078125 -59.9375 L 43.421875 -59.9375 L 43.421875 0 L 31.21875 0 L 31.21875 -4.046875 L 31.078125 -4.046875 C 28.015625 -0.648438 24.113281 1.046875 19.375 1.046875 C 14.21875 1.046875 9.96875 -0.773438 6.625 -4.421875 Z M 17.109375 -23.890625 C 15.503906 -22.316406 14.703125 -20.296875 14.703125 -17.828125 C 14.703125 -15.367188 15.46875 -13.363281 17 -11.8125 C 18.53125 -10.257812 20.550781 -9.484375 23.0625 -9.484375 C 25.476562 -9.484375 27.460938 -10.269531 29.015625 -11.84375 C 30.578125 -13.425781 31.359375 -15.425781 31.359375 -17.84375 C 31.359375 -20.300781 30.554688 -22.316406 28.953125 -23.890625 C 27.347656 -25.472656 25.382812 -26.265625 23.0625 -26.265625 C 20.695312 -26.265625 18.710938 -25.472656 17.109375 -23.890625 Z M 17.109375 -23.890625 "/></g></g></g><g fill="#000000" fill-opacity="1"><g transform="translate(196.276432, 98.873521)"><g><path d="M 20.0625 0.6875 C 16.726562 0.6875 13.816406 -0.101562 11.328125 -1.6875 C 8.847656 -3.28125 6.925781 -5.519531 5.5625 -8.40625 C 4.207031 -11.300781 3.53125 -14.722656 3.53125 -18.671875 C 3.53125 -22.671875 4.207031 -26.113281 5.5625 -29 C 6.925781 -31.894531 8.847656 -34.125 11.328125 -35.6875 C 13.816406 -37.25 16.726562 -38.03125 20.0625 -38.03125 C 23.4375 -38.03125 26.328125 -37.1875 28.734375 -35.5 C 31.140625 -33.8125 32.753906 -31.53125 33.578125 -28.65625 L 32.734375 -28.65625 L 32.734375 -51.5625 C 32.734375 -52.582031 33 -53.363281 33.53125 -53.90625 C 34.070312 -54.445312 34.859375 -54.71875 35.890625 -54.71875 C 36.859375 -54.71875 37.609375 -54.445312 38.140625 -53.90625 C 38.679688 -53.363281 38.953125 -52.582031 38.953125 -51.5625 L 38.953125 -2.6875 C 38.953125 -1.664062 38.695312 -0.875 38.1875 -0.3125 C 37.675781 0.25 36.910156 0.53125 35.890625 0.53125 C 34.910156 0.53125 34.148438 0.25 33.609375 -0.3125 C 33.078125 -0.875 32.8125 -1.664062 32.8125 -2.6875 L 32.8125 -9.984375 L 33.65625 -8.90625 C 32.832031 -5.988281 31.203125 -3.660156 28.765625 -1.921875 C 26.335938 -0.179688 23.4375 0.6875 20.0625 0.6875 Z M 21.359375 -4.296875 C 23.671875 -4.296875 25.695312 -4.859375 27.4375 -5.984375 C 29.175781 -7.117188 30.519531 -8.757812 31.46875 -10.90625 C 32.414062 -13.0625 32.890625 -15.648438 32.890625 -18.671875 C 32.890625 -23.335938 31.851562 -26.898438 29.78125 -29.359375 C 27.707031 -31.816406 24.898438 -33.046875 21.359375 -33.046875 C 19.003906 -33.046875 16.96875 -32.492188 15.25 -31.390625 C 13.53125 -30.285156 12.195312 -28.671875 11.25 -26.546875 C 10.3125 -24.421875 9.84375 -21.796875 9.84375 -18.671875 C 9.84375 -14.054688 10.890625 -10.503906 12.984375 -8.015625 C 15.085938 -5.535156 17.878906 -4.296875 21.359375 -4.296875 Z M 21.359375 -4.296875 "/></g></g></g><g fill="#000000" fill-opacity="1"><g transform="translate(236.156743, 98.873521)"><g><path d="M 17.59375 0.6875 C 15.03125 0.6875 12.738281 0.1875 10.71875 -0.8125 C 8.695312 -1.8125 7.097656 -3.179688 5.921875 -4.921875 C 4.742188 -6.660156 4.15625 -8.609375 4.15625 -10.765625 C 4.15625 -13.523438 4.859375 -15.695312 6.265625 -17.28125 C 7.671875 -18.875 10 -20.003906 13.25 -20.671875 C 16.507812 -21.335938 20.957031 -21.671875 26.59375 -21.671875 L 30.046875 -21.671875 L 30.046875 -17.59375 L 26.671875 -17.59375 C 22.515625 -17.59375 19.242188 -17.398438 16.859375 -17.015625 C 14.484375 -16.628906 12.820312 -15.972656 11.875 -15.046875 C 10.925781 -14.128906 10.453125 -12.828125 10.453125 -11.140625 C 10.453125 -9.035156 11.179688 -7.316406 12.640625 -5.984375 C 14.097656 -4.660156 16.082031 -4 18.59375 -4 C 20.644531 -4 22.453125 -4.484375 24.015625 -5.453125 C 25.578125 -6.429688 26.804688 -7.765625 27.703125 -9.453125 C 28.597656 -11.140625 29.046875 -13.085938 29.046875 -15.296875 L 29.046875 -24.046875 C 29.046875 -27.222656 28.40625 -29.515625 27.125 -30.921875 C 25.84375 -32.335938 23.742188 -33.046875 20.828125 -33.046875 C 19.035156 -33.046875 17.238281 -32.8125 15.4375 -32.34375 C 13.644531 -31.882812 11.753906 -31.144531 9.765625 -30.125 C 9.046875 -29.757812 8.425781 -29.640625 7.90625 -29.765625 C 7.394531 -29.898438 6.984375 -30.171875 6.671875 -30.578125 C 6.367188 -30.992188 6.191406 -31.46875 6.140625 -32 C 6.097656 -32.539062 6.21875 -33.066406 6.5 -33.578125 C 6.78125 -34.085938 7.226562 -34.5 7.84375 -34.8125 C 10.09375 -35.9375 12.316406 -36.753906 14.515625 -37.265625 C 16.722656 -37.773438 18.828125 -38.03125 20.828125 -38.03125 C 24.054688 -38.03125 26.71875 -37.503906 28.8125 -36.453125 C 30.914062 -35.410156 32.476562 -33.828125 33.5 -31.703125 C 34.53125 -29.578125 35.046875 -26.847656 35.046875 -23.515625 L 35.046875 -2.6875 C 35.046875 -1.664062 34.800781 -0.875 34.3125 -0.3125 C 33.820312 0.25 33.117188 0.53125 32.203125 0.53125 C 31.222656 0.53125 30.476562 0.25 29.96875 -0.3125 C 29.457031 -0.875 29.203125 -1.664062 29.203125 -2.6875 L 29.203125 -8.6875 L 29.890625 -8.6875 C 29.484375 -6.738281 28.703125 -5.070312 27.546875 -3.6875 C 26.390625 -2.300781 24.96875 -1.222656 23.28125 -0.453125 C 21.59375 0.304688 19.695312 0.6875 17.59375 0.6875 Z M 17.59375 0.6875 "/></g></g></g><g fill="#000000" fill-opacity="1"><g transform="translate(271.96448, 98.873521)"><g><path d="M 20.828125 0.6875 C 17.898438 0.6875 15.453125 0.164062 13.484375 -0.875 C 11.515625 -1.925781 10.039062 -3.460938 9.0625 -5.484375 C 8.09375 -7.515625 7.609375 -9.988281 7.609375 -12.90625 L 7.609375 -32.5 L 2.453125 -32.5 C 1.585938 -32.5 0.921875 -32.71875 0.453125 -33.15625 C -0.00390625 -33.59375 -0.234375 -34.195312 -0.234375 -34.96875 C -0.234375 -35.726562 -0.00390625 -36.3125 0.453125 -36.71875 C 0.921875 -37.132812 1.585938 -37.34375 2.453125 -37.34375 L 7.609375 -37.34375 L 7.609375 -46.1875 C 7.609375 -47.207031 7.890625 -47.984375 8.453125 -48.515625 C 9.015625 -49.054688 9.785156 -49.328125 10.765625 -49.328125 C 11.734375 -49.328125 12.484375 -49.054688 13.015625 -48.515625 C 13.554688 -47.984375 13.828125 -47.207031 13.828125 -46.1875 L 13.828125 -37.34375 L 23.515625 -37.34375 C 24.390625 -37.34375 25.054688 -37.132812 25.515625 -36.71875 C 25.972656 -36.3125 26.203125 -35.726562 26.203125 -34.96875 C 26.203125 -34.195312 25.972656 -33.59375 25.515625 -33.15625 C 25.054688 -32.71875 24.390625 -32.5 23.515625 -32.5 L 13.828125 -32.5 L 13.828125 -13.53125 C 13.828125 -10.601562 14.441406 -8.382812 15.671875 -6.875 C 16.898438 -5.363281 18.898438 -4.609375 21.671875 -4.609375 C 22.640625 -4.609375 23.46875 -4.707031 24.15625 -4.90625 C 24.851562 -5.113281 25.429688 -5.21875 25.890625 -5.21875 C 26.359375 -5.269531 26.742188 -5.113281 27.046875 -4.75 C 27.359375 -4.394531 27.515625 -3.785156 27.515625 -2.921875 C 27.515625 -2.304688 27.394531 -1.742188 27.15625 -1.234375 C 26.925781 -0.722656 26.53125 -0.363281 25.96875 -0.15625 C 25.351562 0.0507812 24.546875 0.242188 23.546875 0.421875 C 22.546875 0.597656 21.640625 0.6875 20.828125 0.6875 Z M 20.828125 0.6875 "/></g></g></g><g fill="#000000" fill-opacity="1"><g transform="translate(293.940869, 98.873521)"><g><path d="M 17.59375 0.6875 C 15.03125 0.6875 12.738281 0.1875 10.71875 -0.8125 C 8.695312 -1.8125 7.097656 -3.179688 5.921875 -4.921875 C 4.742188 -6.660156 4.15625 -8.609375 4.15625 -10.765625 C 4.15625 -13.523438 4.859375 -15.695312 6.265625 -17.28125 C 7.671875 -18.875 10 -20.003906 13.25 -20.671875 C 16.507812 -21.335938 20.957031 -21.671875 26.59375 -21.671875 L 30.046875 -21.671875 L 30.046875 -17.59375 L 26.671875 -17.59375 C 22.515625 -17.59375 19.242188 -17.398438 16.859375 -17.015625 C 14.484375 -16.628906 12.820312 -15.972656 11.875 -15.046875 C 10.925781 -14.128906 10.453125 -12.828125 10.453125 -11.140625 C 10.453125 -9.035156 11.179688 -7.316406 12.640625 -5.984375 C 14.097656 -4.660156 16.082031 -4 18.59375 -4 C 20.644531 -4 22.453125 -4.484375 24.015625 -5.453125 C 25.578125 -6.429688 26.804688 -7.765625 27.703125 -9.453125 C 28.597656 -11.140625 29.046875 -13.085938 29.046875 -15.296875 L 29.046875 -24.046875 C 29.046875 -27.222656 28.40625 -29.515625 27.125 -30.921875 C 25.84375 -32.335938 23.742188 -33.046875 20.828125 -33.046875 C 19.035156 -33.046875 17.238281 -32.8125 15.4375 -32.34375 C 13.644531 -31.882812 11.753906 -31.144531 9.765625 -30.125 C 9.046875 -29.757812 8.425781 -29.640625 7.90625 -29.765625 C 7.394531 -29.898438 6.984375 -30.171875 6.671875 -30.578125 C 6.367188 -30.992188 6.191406 -31.46875 6.140625 -32 C 6.097656 -32.539062 6.21875 -33.066406 6.5 -33.578125 C 6.78125 -34.085938 7.226562 -34.5 7.84375 -34.8125 C 10.09375 -35.9375 12.316406 -36.753906 14.515625 -37.265625 C 16.722656 -37.773438 18.828125 -38.03125 20.828125 -38.03125 C 24.054688 -38.03125 26.71875 -37.503906 28.8125 -36.453125 C 30.914062 -35.410156 32.476562 -33.828125 33.5 -31.703125 C 34.53125 -29.578125 35.046875 -26.847656 35.046875 -23.515625 L 35.046875 -2.6875 C 35.046875 -1.664062 34.800781 -0.875 34.3125 -0.3125 C 33.820312 0.25 33.117188 0.53125 32.203125 0.53125 C 31.222656 0.53125 30.476562 0.25 29.96875 -0.3125 C 29.457031 -0.875 29.203125 -1.664062 29.203125 -2.6875 L 29.203125 -8.6875 L 29.890625 -8.6875 C 29.484375 -6.738281 28.703125 -5.070312 27.546875 -3.6875 C 26.390625 -2.300781 24.96875 -1.222656 23.28125 -0.453125 C 21.59375 0.304688 19.695312 0.6875 17.59375 0.6875 Z M 17.59375 0.6875 "/></g></g></g></g></g></svg>